<svg xmlns="http://www.w3.org/2000/svg" viewBox="0 0 48 48">
  <defs>
    <style>
      .a {
        fill: #0095db;
      }

      .b {
        fill: #fff;
        fill-rule: evenodd;
      }
    </style>
  </defs>
  <title>kyiv-2</title>
  <g>
    <rect class="a" width="48" height="48" rx="24" ry="24"/>
    <g>
      <path class="b" d="M24,8.2h0a2.18,2.18,0,0,1,2.17,2.17v8.07A2.18,2.18,0,0,1,24,20.62h0a2.18,2.18,0,0,1-2.17-2.18V10.37A2.18,2.18,0,0,1,24,8.2Z"/>
      <path class="b" d="M7.61,20.11h0a2.17,2.17,0,0,1,2.73-1.39L18,21.21A2.18,2.18,0,0,1,19.41,24h0a2.18,2.18,0,0,1-2.73,1.39L9,22.85a2.17,2.17,0,0,1-1.39-2.74Z"/>
      <path class="b" d="M13.87,39.39h0a2.19,2.19,0,0,1-.48-3l4.74-6.53a2.18,2.18,0,0,1,3-.48h0a2.18,2.18,0,0,1,.48,3L16.9,38.91a2.18,2.18,0,0,1-3,.48Z"/>
      <path class="b" d="M34.13,39.39h0a2.17,2.17,0,0,1-3-.49l-4.74-6.52a2.17,2.17,0,0,1,.48-3h0a2.18,2.18,0,0,1,3,.48l4.74,6.53a2.19,2.19,0,0,1-.48,3Z"/>
      <path class="b" d="M40.39,20.11h0A2.17,2.17,0,0,1,39,22.85l-7.68,2.49A2.18,2.18,0,0,1,28.59,24h0A2.18,2.18,0,0,1,30,21.21l7.68-2.49a2.17,2.17,0,0,1,2.73,1.39Z"/>
    </g>
  </g>
</svg>
