<svg xmlns="http://www.w3.org/2000/svg" viewBox="0 0 48 48">
  <defs>
    <style>
      .a {
        fill: #244f9a;
      }

      .b {
        fill: #ffc10e;
      }
    </style>
  </defs>
  <title>lifecell</title>
  <g>
    <rect class="a" width="48" height="48" rx="24" ry="24"/>
    <path class="b" d="M4.5,24A19.48,19.48,0,1,1,17.91,42.53c1.39-8,6.47-14.61,13.19-17.39A4.33,4.33,0,1,0,30,22.29,30.51,30.51,0,0,0,11,38.54a19.48,19.48,0,0,1-3-3.36A22.44,22.44,0,0,1,17.48,17.3a4.33,4.33,0,1,0-1.1-2.88c0,.12,0,.25,0,.37a21.6,21.6,0,0,0-11.89,10c0-.25,0-.51,0-.76"/>
  </g>
</svg>
