<svg xmlns="http://www.w3.org/2000/svg" viewBox="0 0 150.77 48">
  <defs>
    <style>
      .a {
        fill: #654079;
      }

      .b {
        fill: #fff;
      }
    </style>
  </defs>
  <title>play</title>
  <g>
    <rect class="a" y="0.07" width="150.77" height="47.86"/>
    <path class="b" d="M50,12H44.05V36H68.27V30.73H50Z"/>
    <path class="b" d="M36.06,11.93H12.27V36h6v-5h1.95c4.85,0,9.71,0,14.56,0a3.39,3.39,0,0,0,2.8-1.25A12.72,12.72,0,0,0,36.06,11.93Zm-2,13.6H18.38v-8H34.05A8.4,8.4,0,0,1,34.11,25.53Z"/>
    <path class="b" d="M84.88,11.93,69.6,36.06h6.74c.86-1.26,1.75-2.55,2.65-3.85H97.66c.82,1.32,1.61,2.61,2.34,3.8h7.11L91.94,11.93ZM82.19,26.57l6.23-10,6.06,10Z"/>
    <path class="b" d="M120.34,25.93l-11-14h-7.91l15.07,18.81-3.91,5.3h7.23l18.9-24.12h-7.79C127.39,16.6,123.88,21.23,120.34,25.93Z"/>
    <path class="a" d="M.48,48H150.29v-.07H.48Z"/>
    <path class="a" d="M150.29,0H.48V.07H150.29Z"/>
  </g>
</svg>
