<svg xmlns="http://www.w3.org/2000/svg" viewBox="0 0 48 48">
  <defs>
    <style>
      .a {
        fill: #834995;
      }

      .b {
        fill: #fff;
      }
    </style>
  </defs>
  <title>viber-2</title>
  <g>
    <rect class="a" width="48" height="48" rx="24" ry="24"/>
    <g>
      <path class="b" d="M37.9,31.88s-1.76-1.5-2.61-2.14-2.1-1.42-2.82-1.84a2.45,2.45,0,0,0-3.15.45l-1.14,1.46a1.72,1.72,0,0,1-1.7.56,12,12,0,0,1-5.27-3.22,10.87,10.87,0,0,1-3.35-5.57l0-.13a2.17,2.17,0,0,1,.35-1.7l.06-.05c.76-.71,2.18-1.57,2.37-2.4.56-1.43-1.86-4.41-2.21-4.93A24.49,24.49,0,0,0,16,9.59a2.3,2.3,0,0,0-2.77-.23l-.06,0c-3,2-4.13,3.23-3.83,5l.16.71A38.09,38.09,0,0,0,18.45,29.7a38.69,38.69,0,0,0,13.77,9.14A3.81,3.81,0,0,0,36,37.79h0a12.14,12.14,0,0,0,2.35-3v0a2.26,2.26,0,0,0-.46-2.9"/>
      <path class="b" d="M30.64,21.28a.35.35,0,0,1-.35-.34,4.37,4.37,0,0,0-1-2.86A3.88,3.88,0,0,0,26.6,17a.36.36,0,0,1,0-.71,4.52,4.52,0,0,1,3.15,1.28A5,5,0,0,1,31,20.91a.36.36,0,0,1-.34.37h0"/>
      <path class="b" d="M34.09,22.46h0a.35.35,0,0,1-.34-.36A8.51,8.51,0,0,0,31.65,16a7.68,7.68,0,0,0-2.6-1.89,10.46,10.46,0,0,0-3.48-.82.36.36,0,0,1,.05-.72,9.34,9.34,0,0,1,6.54,3,9.22,9.22,0,0,1,2.28,6.56.35.35,0,0,1-.35.34"/>
      <path class="b" d="M37.62,23.88a.35.35,0,0,1-.35-.35,16.66,16.66,0,0,0-1-5.73,12,12,0,0,0-2.77-4.34,12.4,12.4,0,0,0-4.11-2.76,13.65,13.65,0,0,0-5-.94.36.36,0,0,1-.35-.36A.36.36,0,0,1,24.41,9h0A13.28,13.28,0,0,1,34,13,12.62,12.62,0,0,1,37,17.54a17.67,17.67,0,0,1,1,6,.35.35,0,0,1-.34.36Z"/>
    </g>
  </g>
</svg>
